<?xml version="1.0" standalone="no"?>
<!DOCTYPE svg PUBLIC "-//W3C//DTD SVG 20010904//EN"
 "http://www.w3.org/TR/2001/REC-SVG-20010904/DTD/svg10.dtd">
<svg version="1.0" xmlns="http://www.w3.org/2000/svg"
 width="700.000000pt" height="700.000000pt" viewBox="0 0 700.000000 700.000000"
 preserveAspectRatio="xMidYMid meet">
<metadata>
Created by potrace 1.11, written by Peter Selinger 2001-2013
</metadata>
<g transform="translate(0.000000,700.000000) scale(0.100000,-0.100000)"
fill="#000000" stroke="none">
<path d="M1257 6925 c-76 -29 -132 -80 -169 -155 -33 -67 -31 -177 4 -245 14
-27 38 -63 53 -80 15 -16 49 -53 74 -80 25 -28 87 -95 136 -150 50 -54 97
-106 105 -115 37 -40 122 -133 200 -219 47 -52 94 -104 105 -115 11 -12 83
-91 160 -176 77 -85 149 -164 160 -176 11 -11 56 -61 100 -109 44 -49 87 -96
95 -105 8 -9 55 -61 104 -116 50 -54 95 -103 100 -109 6 -5 52 -55 101 -109
50 -55 97 -107 105 -116 8 -9 56 -61 105 -115 50 -55 99 -109 110 -120 11 -12
38 -41 59 -66 47 -52 143 -158 195 -214 21 -22 84 -92 141 -155 57 -63 126
-138 154 -167 l51 -52 59 67 c32 37 77 87 100 112 23 25 77 85 121 135 44 49
89 99 100 111 11 11 36 39 55 60 107 120 207 231 225 250 11 11 52 57 90 100
39 43 77 85 85 94 8 9 47 52 85 95 39 44 75 84 81 90 6 5 75 82 154 170 79 88
166 185 194 215 28 31 80 89 116 129 90 101 85 95 280 311 41 46 83 92 93 104
24 27 144 161 177 196 14 15 57 62 95 105 39 43 75 83 80 89 64 68 176 199
185 217 66 123 30 289 -82 372 -111 82 -275 73 -373 -21 -11 -10 -56 -59 -100
-107 -44 -49 -87 -96 -95 -105 -8 -9 -49 -54 -90 -100 -41 -47 -79 -90 -85
-96 -34 -37 -188 -207 -275 -304 -57 -63 -110 -122 -119 -131 -9 -9 -25 -27
-36 -40 -24 -27 -182 -205 -205 -229 -24 -25 -166 -183 -187 -206 -10 -12 -52
-58 -93 -104 -41 -46 -83 -92 -93 -104 -10 -12 -51 -57 -91 -101 -40 -44 -138
-152 -217 -240 -79 -88 -148 -165 -154 -171 -5 -6 -27 -30 -48 -53 l-38 -42
-27 29 c-45 49 -204 223 -252 276 -25 27 -52 57 -60 66 -8 9 -51 56 -95 104
-44 49 -91 101 -105 116 -47 51 -205 225 -255 280 -27 30 -77 84 -110 120 -33
36 -96 105 -140 154 -44 49 -85 94 -90 100 -6 6 -58 63 -115 126 -58 63 -109
120 -115 126 -13 14 -165 180 -190 208 -27 31 -198 216 -210 230 -6 6 -53 57
-104 114 -112 124 -162 153 -266 158 -45 3 -84 -1 -108 -11z"/>
<path d="M1063 4155 c2 -1144 7 -2098 11 -2120 4 -22 9 -53 11 -70 2 -16 6
-39 8 -50 3 -11 7 -36 11 -55 12 -68 15 -81 41 -177 94 -346 291 -679 555
-941 332 -329 770 -548 1273 -637 195 -34 269 -40 542 -40 283 0 389 8 605 46
192 33 309 66 495 136 574 218 980 636 1173 1208 28 84 57 192 81 310 12 61
19 109 37 275 9 78 12 4190 3 4190 -3 0 -21 -17 -40 -37 -18 -21 -56 -63 -84
-93 -122 -136 -209 -231 -227 -252 -24 -28 -141 -158 -222 -248 -33 -36 -75
-83 -95 -105 -73 -82 -216 -240 -221 -245 -3 -3 -43 -48 -90 -100 -47 -52 -87
-97 -90 -100 -3 -3 -41 -45 -85 -94 -44 -50 -87 -97 -95 -106 -81 -89 -129
-141 -279 -310 -96 -107 -182 -202 -190 -211 -9 -9 -47 -51 -86 -94 -38 -44
-77 -86 -85 -95 -8 -9 -51 -56 -95 -106 -43 -49 -86 -96 -95 -105 -15 -15
-132 -145 -167 -185 -10 -11 -51 -57 -91 -101 l-73 -81 -47 51 c-26 28 -51 57
-57 63 -5 6 -48 53 -95 104 -47 51 -92 101 -100 110 -8 9 -52 57 -97 106 -45
49 -90 98 -100 110 -10 12 -59 66 -109 120 -50 54 -144 158 -209 229 -65 72
-157 173 -205 225 -48 52 -140 154 -205 225 -65 72 -159 175 -209 229 -50 54
-99 108 -109 120 -25 28 -166 184 -247 271 -36 39 -103 113 -150 165 -47 52
-112 124 -146 160 -33 36 -107 117 -164 180 -58 63 -124 135 -147 160 l-43 45
3 -2080z m741 401 c44 -49 106 -116 136 -149 30 -32 62 -68 72 -79 17 -19 175
-193 208 -228 8 -9 33 -36 54 -60 22 -25 67 -74 100 -110 34 -36 97 -106 141
-155 44 -49 91 -100 105 -115 14 -14 65 -71 115 -126 155 -171 169 -187 190
-209 11 -12 58 -64 105 -115 47 -52 92 -101 100 -110 83 -90 119 -129 200
-220 152 -168 164 -180 171 -180 4 0 60 59 126 132 65 73 129 144 142 158 12
14 53 58 90 99 36 41 73 82 81 91 8 9 51 56 95 106 89 99 152 169 175 194 8 8
49 53 90 100 41 46 86 95 100 110 14 15 53 58 86 96 34 38 72 81 85 95 31 33
152 168 176 195 10 12 56 63 103 115 79 87 164 181 216 239 13 14 35 39 51 56
29 32 129 143 183 204 l31 35 -4 -1345 c-2 -740 -7 -1365 -11 -1390 -56 -343
-150 -577 -310 -775 -64 -80 -127 -143 -186 -188 -30 -23 -61 -48 -68 -55 -26
-24 -180 -110 -258 -145 -129 -56 -320 -116 -424 -133 -19 -3 -38 -8 -41 -10
-3 -1 -34 -6 -70 -10 -35 -3 -66 -8 -69 -9 -3 -2 -52 -7 -110 -11 -187 -15
-508 -9 -620 10 -14 3 -38 7 -55 9 -16 3 -41 8 -55 11 -14 3 -36 8 -50 10
-177 30 -504 160 -625 248 -5 4 -47 35 -93 68 -337 246 -561 626 -623 1060 -9
63 -13 422 -14 1360 -1 701 1 1279 3 1284 3 5 21 -9 40 -30 19 -21 71 -79 116
-128z"/>
<path d="M3440 2188 c-320 -41 -500 -385 -353 -676 53 -105 191 -215 298 -238
109 -23 237 -9 323 35 153 78 251 235 255 406 2 93 -7 135 -45 213 -86 181
-279 286 -478 260z"/>
</g>
</svg>
