<?xml version="1.0" standalone="no"?>
<!DOCTYPE svg PUBLIC "-//W3C//DTD SVG 20010904//EN"
 "http://www.w3.org/TR/2001/REC-SVG-20010904/DTD/svg10.dtd">
<svg version="1.0" xmlns="http://www.w3.org/2000/svg"
 width="1120.000000pt" height="1120.000000pt" viewBox="0 0 1120.000000 1120.000000"
 preserveAspectRatio="xMidYMid meet">
<metadata>
Created by potrace 1.11, written by Peter Selinger 2001-2013
</metadata>
<g transform="translate(0.000000,1120.000000) scale(0.100000,-0.100000)"
fill="#000000" stroke="none">
<path d="M5510 10489 c-19 -5 -39 -11 -45 -12 -34 -10 -93 -46 -135 -84 -46
-41 -60 -62 -133 -193 -17 -30 -33 -57 -36 -60 -3 -3 -19 -30 -35 -60 -16 -30
-34 -62 -41 -70 -7 -8 -14 -20 -16 -25 -4 -9 -76 -138 -99 -175 -5 -8 -35 -60
-66 -115 -32 -55 -62 -103 -68 -107 -6 -4 -8 -8 -4 -8 3 0 -32 -66 -79 -147
-47 -82 -93 -161 -102 -178 -9 -16 -19 -31 -23 -33 -5 -2 -8 -7 -8 -12 0 -9
-138 -250 -151 -264 -5 -6 -9 -16 -9 -24 0 -12 130 -244 219 -392 11 -19 24
-42 28 -50 3 -8 9 -17 12 -20 3 -3 13 -18 22 -35 61 -112 84 -153 100 -174 11
-13 19 -27 19 -31 0 -8 174 -309 189 -326 5 -7 8 -14 5 -17 -2 -2 2 -10 11
-17 8 -7 15 -16 15 -20 0 -5 27 -53 59 -108 33 -55 57 -103 53 -106 -3 -3 0
-6 6 -6 7 0 18 -15 26 -32 8 -18 29 -55 45 -83 17 -27 35 -59 41 -70 6 -11 16
-29 23 -40 7 -11 36 -63 66 -115 30 -52 57 -97 60 -100 3 -3 7 -12 9 -20 2 -8
8 -16 13 -18 5 -2 9 -7 9 -12 0 -6 139 -252 170 -300 5 -8 22 -39 37 -67 15
-29 31 -53 35 -53 4 0 8 -5 8 -11 0 -6 32 -64 70 -130 39 -66 70 -124 70 -130
0 -5 5 -9 11 -9 5 0 7 -4 4 -10 -3 -5 -2 -10 2 -10 5 0 20 -22 34 -50 13 -27
27 -50 32 -50 4 0 7 -5 7 -10 0 -10 23 -51 93 -168 15 -26 32 -58 38 -72 6
-13 14 -27 18 -30 4 -3 21 -30 38 -60 16 -30 42 -75 57 -100 15 -25 29 -53 33
-62 3 -10 9 -18 14 -18 5 0 9 -4 9 -9 0 -9 199 -362 210 -371 3 -3 11 -16 17
-30 7 -14 26 -47 42 -75 17 -27 39 -66 49 -85 10 -19 82 -143 158 -275 196
-337 254 -438 291 -503 17 -31 35 -61 40 -67 4 -5 15 -23 23 -40 8 -16 38 -69
66 -117 55 -94 60 -96 92 -28 6 14 23 43 36 65 14 22 31 51 39 65 16 30 49 88
85 150 14 25 29 47 32 50 3 3 6 12 8 20 2 8 9 22 15 30 7 8 18 26 25 39 8 13
22 38 31 55 10 17 98 171 196 341 98 171 183 319 189 330 6 11 16 23 21 27 7
5 7 8 0 8 -7 0 -7 3 0 8 6 4 21 27 34 52 14 25 44 77 68 117 24 39 43 76 43
82 0 6 5 11 10 11 6 0 10 5 10 11 0 6 9 23 20 39 11 15 17 30 13 34 -3 3 -2 6
3 6 5 0 23 26 39 58 17 31 33 59 36 62 7 5 41 68 61 113 7 15 16 27 20 27 4 0
8 4 8 9 0 5 14 32 31 60 l32 50 -28 52 c-39 75 -49 93 -56 99 -3 3 -23 37 -44
75 -21 39 -49 87 -62 107 -12 21 -23 42 -23 48 0 5 -4 10 -10 10 -5 0 -10 4
-10 9 0 9 -53 106 -88 161 -9 14 -17 27 -17 30 0 3 -13 24 -28 47 -15 24 -27
47 -27 53 0 5 -5 10 -11 10 -5 0 -8 4 -4 9 3 5 -1 15 -8 23 -13 13 -50 76 -96
163 -14 27 -30 55 -36 61 -5 6 -19 28 -30 50 -11 21 -23 41 -26 44 -4 3 -15
21 -25 41 -59 112 -69 129 -77 129 -4 0 -5 5 -2 10 3 6 1 10 -4 10 -6 0 -11 4
-11 9 0 5 -38 74 -85 155 -47 80 -85 150 -85 156 0 5 -4 10 -9 10 -5 0 -11 8
-14 18 -4 9 -20 40 -37 67 -17 28 -35 59 -40 70 -6 11 -14 27 -20 35 -29 43
-100 172 -100 180 0 6 -4 10 -9 10 -5 0 -13 10 -17 22 -4 13 -17 39 -29 58
-30 47 -139 234 -140 240 -2 7 -37 67 -62 106 -12 19 -20 34 -17 34 3 0 -2 7
-10 16 -9 8 -16 22 -16 30 0 8 -4 14 -8 14 -5 0 -14 16 -22 35 -8 19 -17 35
-21 35 -4 0 -9 8 -12 18 -4 9 -18 37 -33 62 -15 25 -38 65 -52 90 -13 25 -31
52 -38 61 -8 8 -14 19 -14 23 0 4 -22 45 -50 92 -27 47 -50 89 -50 94 0 6 -4
10 -10 10 -5 0 -10 4 -10 10 0 5 -17 38 -37 73 -21 35 -46 76 -55 92 -9 17
-33 58 -53 92 -19 35 -35 66 -35 69 1 4 -3 10 -8 13 -5 3 -18 22 -29 41 -21
37 -88 155 -103 180 -73 124 -100 172 -100 180 0 6 -4 10 -10 10 -5 0 -10 4
-10 9 0 8 -85 163 -110 201 -6 8 -16 26 -22 40 -7 14 -15 27 -19 30 -3 3 -8
12 -12 20 -4 8 -20 38 -37 65 -17 28 -33 58 -37 68 -3 9 -10 17 -16 17 -6 0
-8 3 -4 6 3 3 -5 18 -19 32 -13 15 -24 30 -24 35 0 4 -4 5 -10 2 -5 -3 -10 -1
-10 4 0 17 -101 78 -155 94 -59 16 -156 19 -205 6z"/>
<path d="M3983 8098 c-6 -7 -22 -34 -36 -59 -41 -75 -52 -94 -57 -99 -3 -3
-13 -21 -23 -40 -31 -59 -52 -95 -57 -100 -5 -5 -20 -31 -70 -120 -16 -30 -34
-62 -40 -70 -39 -62 -180 -313 -180 -320 0 -6 -4 -10 -10 -10 -5 0 -10 -4 -10
-9 0 -13 -82 -155 -92 -159 -4 -2 -8 -12 -8 -22 0 -10 -3 -20 -8 -22 -4 -1
-43 -66 -87 -142 -44 -77 -91 -159 -105 -182 -14 -24 -64 -112 -112 -196 -48
-84 -91 -157 -95 -163 -5 -5 -17 -26 -26 -45 -10 -19 -32 -57 -49 -85 -17 -27
-42 -71 -55 -97 l-25 -47 37 -63 c20 -35 41 -70 46 -78 5 -8 15 -27 22 -42 6
-16 14 -28 18 -28 4 0 12 -15 20 -32 7 -18 16 -35 20 -38 3 -3 18 -27 33 -55
14 -27 39 -72 56 -100 63 -105 100 -174 100 -183 0 -6 4 -12 8 -14 5 -1 15
-15 23 -30 8 -16 64 -115 125 -220 61 -106 120 -209 130 -228 11 -19 22 -36
27 -38 4 -2 7 -7 7 -12 0 -5 38 -74 85 -154 46 -80 81 -146 77 -146 -4 0 -2
-4 4 -8 7 -4 21 -24 33 -44 11 -21 31 -55 42 -75 12 -21 33 -58 47 -83 14 -25
36 -62 49 -82 12 -21 23 -42 23 -47 0 -5 3 -11 8 -13 4 -1 15 -19 26 -38 56
-104 80 -147 91 -160 7 -8 15 -22 18 -30 4 -8 22 -42 42 -75 20 -33 41 -72 48
-87 6 -16 15 -28 19 -28 4 0 8 -7 8 -15 0 -8 4 -15 10 -15 5 0 9 -3 8 -7 -2
-8 4 -20 119 -216 35 -60 63 -113 63 -118 0 -5 5 -9 10 -9 6 0 10 -9 10 -19 0
-11 4 -21 8 -23 5 -1 22 -28 39 -58 78 -140 158 -276 167 -282 6 -4 8 -8 4 -8
-4 0 32 -66 79 -147 47 -82 94 -163 104 -181 35 -59 59 -102 80 -140 12 -20
38 -66 59 -102 21 -36 47 -81 58 -101 11 -20 26 -47 34 -60 7 -13 19 -32 27
-41 8 -10 10 -18 5 -18 -5 0 -4 -4 1 -8 9 -6 81 -127 127 -213 8 -13 26 -43
41 -66 15 -24 27 -45 27 -47 0 -3 14 -29 31 -58 18 -29 42 -71 54 -93 12 -22
48 -85 80 -140 32 -55 69 -120 83 -145 14 -25 44 -76 66 -115 23 -38 47 -82
55 -97 8 -16 17 -28 20 -28 7 0 154 257 159 277 2 7 8 13 13 13 5 0 9 4 9 9 0
6 25 52 55 104 30 51 55 99 55 105 0 5 4 12 8 14 7 3 157 259 245 418 17 30
44 78 61 105 17 28 40 68 51 90 11 22 22 42 25 45 11 11 31 46 41 73 6 15 15
27 20 27 5 0 9 4 9 9 0 13 92 175 104 183 6 4 8 8 4 8 -4 0 17 41 47 90 30 50
55 94 55 99 0 5 7 14 15 21 8 7 15 21 15 30 0 10 4 20 8 22 9 3 132 213 132
225 0 3 7 14 16 24 15 17 13 25 -40 114 -31 53 -56 99 -56 102 0 4 -6 14 -14
22 -7 9 -26 41 -42 71 -16 30 -31 57 -35 60 -3 3 -8 12 -12 20 -4 8 -20 38
-37 65 -17 28 -40 69 -52 93 -12 23 -26 42 -30 42 -4 0 -8 5 -8 11 0 6 -36 72
-79 147 -44 75 -79 139 -78 142 1 3 -4 12 -11 20 -20 24 -55 81 -87 143 -16
31 -33 57 -37 57 -4 0 -7 3 -6 8 2 4 -23 51 -55 104 -31 53 -57 102 -57 107 0
6 -4 11 -10 11 -5 0 -10 6 -10 14 0 8 -3 16 -7 18 -5 2 -16 19 -25 38 -10 19
-30 55 -44 80 -15 25 -35 59 -44 75 -85 147 -123 212 -132 223 -6 6 -7 12 -2
12 5 0 4 4 -2 8 -12 8 -45 68 -43 78 0 4 -3 10 -8 13 -8 5 -56 85 -113 186
-13 22 -31 54 -41 70 -11 17 -24 41 -31 55 -7 14 -18 31 -25 38 -7 7 -13 18
-13 23 0 5 -15 32 -33 61 -18 29 -39 66 -47 82 -28 55 -35 66 -42 66 -5 0 -8
9 -8 20 0 11 -3 20 -8 20 -4 0 -18 21 -32 48 -13 26 -27 49 -30 52 -3 3 -14
23 -25 45 -11 22 -26 46 -32 53 -7 7 -13 20 -13 28 0 8 -4 14 -10 14 -5 0 -10
4 -10 10 0 8 -62 120 -100 180 -5 8 -21 38 -36 65 -15 28 -29 52 -33 55 -3 3
-13 19 -21 35 -8 17 -41 73 -72 126 -32 53 -58 101 -58 107 0 6 -4 12 -9 14
-5 2 -20 26 -35 53 -31 59 -57 104 -78 137 -8 12 -29 48 -45 78 -17 30 -73
127 -123 215 -51 88 -104 180 -118 205 -14 25 -35 61 -47 80 -12 19 -25 42
-28 50 -4 8 -17 31 -29 50 -12 19 -31 53 -43 75 -38 70 -50 90 -56 95 -4 3
-17 25 -29 50 -12 25 -30 56 -40 70 -9 14 -30 50 -47 80 -40 75 -125 220 -128
220 -1 0 -7 -6 -12 -12z"/>
<path d="M2363 5290 c-3 -11 -9 -20 -13 -20 -4 0 -10 -8 -13 -17 -4 -10 -20
-40 -37 -68 -17 -27 -33 -57 -37 -65 -4 -8 -9 -17 -12 -20 -4 -3 -12 -16 -19
-30 -6 -14 -20 -38 -30 -55 -9 -16 -33 -57 -51 -90 -19 -33 -39 -63 -44 -66
-5 -3 -9 -10 -9 -15 1 -10 -188 -342 -220 -387 -11 -16 -21 -35 -22 -42 -1 -7
-7 -19 -13 -26 -11 -14 -58 -95 -116 -199 -17 -30 -33 -57 -36 -60 -3 -3 -13
-18 -21 -35 -8 -16 -17 -32 -20 -35 -6 -6 -50 -86 -65 -117 -5 -13 -13 -23
-17 -23 -5 0 -8 -4 -8 -9 0 -4 -47 -90 -105 -190 -58 -99 -105 -185 -105 -191
0 -5 -4 -10 -10 -10 -5 0 -10 -6 -10 -13 0 -7 -7 -22 -15 -32 -9 -11 -62 -101
-118 -200 -134 -234 -131 -229 -137 -235 -3 -3 -18 -31 -35 -62 -16 -32 -33
-58 -38 -58 -4 0 -6 -3 -5 -7 2 -5 -7 -24 -19 -43 -19 -31 -195 -337 -230
-400 -8 -14 -28 -47 -44 -75 -17 -27 -35 -62 -42 -77 -6 -16 -14 -28 -17 -28
-4 0 -17 -22 -30 -50 -13 -27 -27 -50 -32 -50 -4 0 -8 -5 -8 -10 0 -6 -38 -76
-85 -156 -47 -81 -85 -150 -85 -155 0 -5 -4 -9 -9 -9 -5 0 -14 -12 -20 -27 -6
-16 -15 -35 -20 -43 -17 -26 -85 -144 -106 -183 -11 -20 -23 -37 -27 -37 -5 0
-8 -7 -8 -15 0 -8 -15 -38 -33 -67 -19 -29 -37 -60 -40 -68 -4 -8 -17 -31 -28
-50 -75 -123 -90 -164 -93 -265 -7 -161 100 -316 264 -385 31 -13 337 -15
2393 -18 1296 -1 2357 0 2357 3 0 5 -30 57 -58 100 -6 11 -15 27 -19 35 -4 8
-26 48 -50 88 -24 40 -43 77 -43 82 0 6 -4 10 -9 10 -5 0 -12 9 -16 20 -6 19
-85 160 -95 170 -3 3 -14 23 -25 45 -11 22 -26 46 -32 53 -7 7 -16 24 -19 38
-3 13 -10 24 -14 24 -4 0 -10 8 -13 18 -4 9 -22 44 -42 77 -19 33 -41 71 -47
85 -7 14 -15 27 -18 30 -5 5 -15 21 -58 99 -13 25 -33 58 -43 72 -10 14 -16
29 -12 33 3 3 1 6 -5 6 -7 0 -12 7 -12 15 0 8 -4 15 -10 15 -5 0 -10 4 -10 10
0 5 -31 64 -70 131 -38 68 -70 126 -70 130 0 4 -3 9 -7 11 -8 3 -46 69 -68
115 -5 13 -13 23 -17 23 -5 0 -8 5 -8 11 0 12 -76 145 -98 172 -8 9 -11 17 -6
17 5 0 5 4 -1 8 -10 7 -21 26 -62 102 -10 19 -24 40 -30 48 -7 7 -16 24 -19
38 -3 13 -10 24 -14 24 -4 0 -10 8 -14 18 -3 9 -14 31 -23 47 -35 57 -98 166
-118 203 -22 40 -43 76 -149 257 -38 66 -78 136 -89 155 -10 19 -24 44 -30 55
-7 11 -39 68 -72 125 -33 58 -63 107 -67 108 -5 2 -6 7 -3 12 3 4 -2 13 -10
20 -8 7 -15 19 -15 26 0 8 -4 14 -10 14 -5 0 -10 6 -10 13 0 6 -23 49 -50 95
-28 46 -50 85 -50 87 0 1 -18 33 -40 69 -22 36 -40 70 -40 76 0 5 -3 10 -7 10
-5 0 -21 27 -37 60 -16 33 -32 60 -35 60 -3 0 -15 20 -26 45 -11 25 -22 45
-26 45 -4 0 -10 11 -13 25 -4 14 -11 25 -17 25 -6 0 -7 5 -4 10 3 6 2 10 -3
10 -4 0 -14 16 -22 35 -8 19 -17 35 -22 35 -4 0 -8 4 -8 10 0 5 -14 33 -31 62
-18 29 -41 69 -52 88 -124 220 -163 286 -169 288 -4 2 -8 7 -8 12 0 4 -16 37
-36 72 -20 34 -52 92 -71 128 -20 36 -41 72 -48 80 -7 8 -31 50 -54 93 -23 42
-45 77 -48 77 -3 0 -7 -9 -10 -20z"/>
<path d="M8813 5293 c-7 -2 -13 -9 -13 -15 0 -5 -22 -48 -50 -95 -27 -47 -50
-89 -50 -94 0 -5 -4 -9 -8 -9 -4 0 -13 -12 -19 -27 -7 -16 -24 -48 -39 -73
-31 -53 -57 -98 -92 -160 -13 -25 -32 -53 -41 -64 -9 -10 -14 -19 -11 -20 2 0
-21 -44 -52 -96 -31 -52 -66 -114 -79 -138 -13 -24 -28 -51 -34 -60 -5 -9 -43
-75 -84 -147 -41 -71 -79 -133 -85 -137 -6 -4 -7 -8 -2 -8 5 0 4 -6 -2 -12
-16 -19 -122 -209 -122 -218 0 -5 -4 -10 -8 -12 -5 -1 -30 -41 -56 -88 -26
-47 -51 -92 -56 -100 -20 -32 -100 -172 -100 -175 0 -2 -18 -33 -40 -69 -22
-36 -40 -68 -40 -71 0 -3 -11 -22 -25 -42 -23 -35 -24 -37 -7 -67 9 -17 19
-33 22 -36 3 -3 13 -21 24 -40 25 -47 63 -113 97 -172 16 -27 29 -53 29 -58 0
-6 5 -10 10 -10 6 0 10 -4 10 -10 0 -5 20 -43 45 -83 25 -41 45 -80 45 -86 0
-6 5 -11 10 -11 6 0 10 -4 10 -8 0 -5 38 -75 85 -156 47 -81 85 -152 85 -157
0 -5 5 -9 10 -9 6 0 10 -4 10 -9 0 -5 20 -44 45 -85 25 -42 45 -79 45 -81 0
-3 15 -28 33 -57 34 -53 90 -152 111 -195 6 -13 14 -23 19 -23 4 0 7 -4 7 -10
0 -5 22 -47 49 -92 27 -46 58 -100 70 -121 32 -56 49 -87 156 -272 55 -93 110
-190 123 -215 13 -24 32 -57 43 -71 10 -15 19 -32 19 -38 0 -6 3 -11 8 -11 4
0 15 -17 25 -37 9 -21 22 -45 27 -53 29 -45 100 -172 100 -180 0 -6 4 -10 9
-10 5 0 13 -10 18 -22 4 -13 28 -58 53 -100 l45 -78 830 0 c907 1 888 -1 980
59 85 55 161 159 181 251 20 91 5 203 -38 278 -11 20 -30 55 -41 77 -12 22
-24 42 -27 45 -4 3 -26 41 -50 85 -24 44 -56 100 -72 124 -15 25 -28 51 -28
58 0 7 -4 13 -10 13 -5 0 -10 6 -10 14 0 8 -3 16 -7 18 -8 3 -46 69 -68 115
-5 13 -13 23 -17 23 -5 0 -8 5 -8 10 0 6 -11 27 -23 48 -13 20 -35 58 -49 83
-45 80 -53 94 -58 99 -3 3 -13 21 -24 40 -52 97 -80 146 -89 158 -11 14 -52
86 -70 122 -6 14 -14 27 -18 30 -3 3 -19 30 -36 60 -16 30 -39 71 -50 90 -69
121 -84 147 -93 160 -5 8 -21 35 -35 60 -14 25 -39 68 -55 95 -17 28 -33 58
-37 68 -3 9 -8 17 -12 17 -3 0 -15 20 -26 45 -11 25 -23 45 -27 45 -5 0 -8 4
-8 9 0 5 -27 55 -61 112 -33 56 -65 111 -70 123 -6 12 -21 39 -34 61 -14 22
-28 47 -32 55 -3 8 -9 17 -12 20 -6 5 -24 37 -58 100 -10 19 -22 38 -28 42 -7
5 -7 8 0 8 6 0 6 3 -1 8 -6 4 -34 50 -64 102 -29 52 -60 103 -68 113 -8 9 -12
17 -9 17 4 0 -13 32 -38 70 -25 39 -42 70 -38 70 3 0 -3 10 -14 23 -11 12 -28
38 -37 57 -33 65 -49 95 -55 100 -3 3 -15 21 -25 40 -10 19 -35 62 -54 95 -19
33 -49 85 -65 115 -17 30 -34 57 -39 58 -4 2 -8 8 -8 13 0 5 -31 64 -70 130
-38 66 -70 124 -70 129 0 6 -4 10 -8 10 -8 0 -26 32 -31 55 -2 6 -8 16 -14 24
-12 14 -32 47 -43 71 -4 8 -15 26 -24 40 -9 14 -34 57 -55 95 -20 39 -43 77
-49 85 -7 8 -18 29 -26 45 -8 17 -17 32 -21 35 -3 3 -13 22 -22 43 -18 37 -22
40 -44 30z"/>
<path d="M7200 2480 c-7 -16 -16 -30 -20 -30 -4 0 -10 -8 -13 -17 -3 -10 -21
-44 -39 -75 -164 -284 -258 -451 -258 -459 0 -5 -4 -9 -9 -9 -5 0 -11 -8 -15
-17 -3 -10 -10 -25 -15 -33 -6 -8 -33 -55 -61 -105 -28 -49 -55 -97 -60 -105
-35 -56 -80 -140 -80 -149 0 -6 -4 -11 -8 -11 -4 0 -21 -26 -36 -57 -16 -32
-34 -65 -41 -73 -7 -8 -26 -40 -43 -70 -16 -30 -47 -84 -68 -120 -20 -36 -42
-75 -48 -87 -6 -13 -14 -23 -18 -23 -5 0 -8 -5 -8 -10 0 -6 -31 -65 -70 -131
-38 -66 -70 -124 -70 -129 0 -6 -3 -10 -7 -10 -9 0 -35 -51 -30 -57 2 -2 472
-2 1045 -1 l1041 3 -94 165 c-52 91 -100 172 -105 180 -6 8 -13 22 -17 30 -4
8 -16 31 -28 50 -23 36 -63 107 -98 173 -12 20 -24 37 -29 37 -4 0 -8 5 -8 11
0 6 -28 59 -61 118 -62 107 -82 142 -119 206 -32 55 -54 94 -109 188 -28 49
-51 93 -51 98 0 5 -4 9 -10 9 -5 0 -10 4 -10 8 0 8 -82 153 -147 260 -12 21
-25 44 -29 52 -24 49 -127 220 -134 220 -4 0 -13 -13 -20 -30z"/>
</g>
</svg>
